<svg width="32" height="32" viewBox="0 0 32 32" fill="none" xmlns="http://www.w3.org/2000/svg">
<g clip-path="url(#clip0_2115_3819)">
<path d="M0 16C0 7.16344 7.16344 0 16 0C24.8366 0 32 7.16344 32 16C32 24.8366 24.8366 32 16 32C7.16344 32 0 24.8366 0 16Z" fill="#F9F5FF"/>
<path d="M1 16C1 7.71573 7.71573 1 16 1C24.2843 1 31 7.71573 31 16C31 24.2843 24.2843 31 16 31C7.71573 31 1 24.2843 1 16Z" fill="#7F56D9"/>
<path d="M1 16C1 7.71573 7.71573 1 16 1C24.2843 1 31 7.71573 31 16C31 24.2843 24.2843 31 16 31C7.71573 31 1 24.2843 1 16Z" stroke="#7F56D9" stroke-width="2"/>
<path fill-rule="evenodd" clip-rule="evenodd" d="M22.7951 9.85346L13.2484 19.0668L10.7151 16.3601C10.2484 15.9201 9.51509 15.8935 8.98176 16.2668C8.46176 16.6535 8.31509 17.3335 8.63509 17.8801L11.6351 22.7601C11.9284 23.2135 12.4351 23.4935 13.0084 23.4935C13.5551 23.4935 14.0751 23.2135 14.3684 22.7601C14.8484 22.1335 24.0084 11.2135 24.0084 11.2135C25.2084 9.9868 23.7551 8.9068 22.7951 9.84013V9.85346Z" fill="white"/>
</g>
<defs>
<clipPath id="clip0_2115_3819">
<path d="M0 16C0 7.16344 7.16344 0 16 0C24.8366 0 32 7.16344 32 16C32 24.8366 24.8366 32 16 32C7.16344 32 0 24.8366 0 16Z" fill="white"/>
</clipPath>
</defs>
</svg>
