<svg width="24" height="21" viewBox="0 0 24 21" fill="none" xmlns="http://www.w3.org/2000/svg">
<path d="M21.5 12.2041H2.5C1.121 12.2041 0 11.0821 0 9.7041V2.7041C0 1.3261 1.121 0.204102 2.5 0.204102H21.5C22.879 0.204102 24 1.3261 24 2.7041V9.7041C24 11.0821 22.879 12.2041 21.5 12.2041ZM2.5 1.2041C1.673 1.2041 1 1.8771 1 2.7041V9.7041C1 10.5311 1.673 11.2041 2.5 11.2041H21.5C22.327 11.2041 23 10.5311 23 9.7041V2.7041C23 1.8771 22.327 1.2041 21.5 1.2041H2.5Z" fill="black"/>
<path d="M23.5 8.2041H0.5C0.224 8.2041 0 7.9801 0 7.7041C0 7.4281 0.224 7.2041 0.5 7.2041H23.5C23.776 7.2041 24 7.4281 24 7.7041C24 7.9801 23.776 8.2041 23.5 8.2041Z" fill="black"/>
<path d="M21.5 10.2041H20.5C20.224 10.2041 20 9.9801 20 9.7041C20 9.4281 20.224 9.2041 20.5 9.2041H21.5C21.776 9.2041 22 9.4281 22 9.7041C22 9.9801 21.776 10.2041 21.5 10.2041Z" fill="black"/>
<path d="M18.5 10.2041H17.5C17.224 10.2041 17 9.9801 17 9.7041C17 9.4281 17.224 9.2041 17.5 9.2041H18.5C18.776 9.2041 19 9.4281 19 9.7041C19 9.9801 18.776 10.2041 18.5 10.2041Z" fill="black"/>
<path d="M3.99215 20.2041C3.86415 20.2041 3.73615 20.1551 3.63815 20.0581C3.44315 19.8631 3.44315 19.5461 3.63815 19.3511C4.24915 18.7391 3.99815 17.9971 3.53815 16.8361C3.11015 15.7561 2.57715 14.4121 3.63815 13.3511C3.83315 13.1561 4.15015 13.1561 4.34515 13.3511C4.54015 13.5461 4.54015 13.8631 4.34515 14.0581C3.77815 14.6251 4.02315 15.3431 4.46815 16.4671C4.90615 17.5731 5.45215 18.9501 4.34515 20.0581C4.24815 20.1551 4.12015 20.2041 3.99215 20.2041Z" fill="black"/>
<path d="M7.97701 20.2041C7.84901 20.2041 7.72101 20.1551 7.62301 20.0581C7.42801 19.8631 7.42801 19.5461 7.62301 19.3511C8.23401 18.7391 7.98301 17.9971 7.52301 16.8361C7.09501 15.7561 6.56201 14.4121 7.62301 13.3511C7.81801 13.1561 8.13501 13.1561 8.33001 13.3511C8.52501 13.5461 8.52501 13.8631 8.33001 14.0581C7.76301 14.6251 8.00801 15.3431 8.45301 16.4671C8.89101 17.5731 9.43701 18.9501 8.33001 20.0581C8.23201 20.1551 8.10401 20.2041 7.97701 20.2041Z" fill="black"/>
<path d="M11.9599 20.2041C11.8319 20.2041 11.7039 20.1551 11.6059 20.0581C11.4109 19.8631 11.4109 19.5461 11.6059 19.3511C12.2169 18.7391 11.9659 17.9971 11.5059 16.8361C11.0779 15.7561 10.5449 14.4121 11.6059 13.3511C11.8009 13.1561 12.1179 13.1561 12.3129 13.3511C12.5079 13.5461 12.5079 13.8631 12.3129 14.0581C11.7459 14.6251 11.9909 15.3431 12.4359 16.4671C12.8739 17.5731 13.4199 18.9501 12.3129 20.0581C12.2159 20.1551 12.0879 20.2041 11.9599 20.2041Z" fill="black"/>
<path d="M18.5 20.2041C18.224 20.2041 18 19.9801 18 19.7041V13.7041C18 13.4281 18.224 13.2041 18.5 13.2041C18.776 13.2041 19 13.4281 19 13.7041V19.7041C19 19.9801 18.776 20.2041 18.5 20.2041Z" fill="black"/>
<path d="M15.902 18.704C15.73 18.704 15.561 18.615 15.469 18.454C15.33 18.215 15.412 17.909 15.652 17.771L20.847 14.771C21.084 14.632 21.392 14.713 21.53 14.954C21.669 15.193 21.587 15.499 21.347 15.637L16.152 18.637C16.073 18.682 15.987 18.704 15.902 18.704Z" fill="black"/>
<path d="M21.0978 18.7041C21.0128 18.7041 20.9268 18.6831 20.8478 18.6371L15.6528 15.6371C15.4138 15.4991 15.3318 15.1931 15.4698 14.9541C15.6078 14.7141 15.9128 14.6341 16.1528 14.7711L21.3478 17.7711C21.5868 17.9091 21.6688 18.2151 21.5308 18.4541C21.4378 18.6151 21.2698 18.7041 21.0978 18.7041Z" fill="black"/>
<path d="M15.5 10.2041H2.5C2.224 10.2041 2 9.9801 2 9.7041C2 9.4281 2.224 9.2041 2.5 9.2041H15.5C15.776 9.2041 16 9.4281 16 9.7041C16 9.9801 15.776 10.2041 15.5 10.2041Z" fill="black"/>
</svg>
